<?xml version="1.0" encoding="UTF-8"?>
<svg id="Capa_2" data-name="Capa 2" xmlns="http://www.w3.org/2000/svg" viewBox="0 0 718.56 207.94">
  <defs>
    <style>
      .letter, .heart-p {
        fill: #00a09b;
      }
      .person-1 {
        fill: #32d9c3
      }
      .person-2 {
        fill: #13bfd6
      }
    </style>
  </defs>
  <g id="Layer_1" data-name="Layer 1">
    <g>
      <g>
        <path class="letter" d="M253.99,136.15v22.33c-.58.22-1.33.41-2.27.59-.93.18-1.98.27-3.13.27-2.23,0-3.83-.41-4.8-1.24-.97-.82-1.46-2.21-1.46-4.15v-55.67c0-1.22.34-2.17,1.03-2.86.69-.68,1.64-1.2,2.86-1.56,2.23-.79,4.89-1.33,7.98-1.62,3.09-.29,6-.43,8.74-.43,9.35,0,16.27,1.98,20.77,5.93,4.49,3.96,6.74,9.32,6.74,16.08s-2.25,12.17-6.74,16.24c-4.5,4.07-11.2,6.1-20.12,6.1h-9.6ZM262.83,126.77c4.96,0,8.86-1.08,11.71-3.24,2.84-2.16,4.26-5.39,4.26-9.71s-1.35-7.48-4.05-9.5c-2.7-2.01-6.56-3.02-11.6-3.02-1.65,0-3.29.07-4.91.21-1.62.14-3.08.32-4.37.54v24.71h8.96Z"/>
        <path class="letter" d="M311.6,158.49c-.5.22-1.21.41-2.1.59-.9.18-1.89.27-2.97.27-2.09,0-3.63-.4-4.64-1.19-1.01-.79-1.51-2.12-1.51-3.99v-35.39c0-1.8.36-3.26,1.08-4.37.72-1.11,1.87-2.17,3.45-3.18,2.08-1.29,4.74-2.37,7.98-3.24,3.23-.86,6.79-1.29,10.68-1.29,6.33,0,9.49,1.8,9.49,5.39,0,.86-.14,1.67-.43,2.43-.29.75-.62,1.42-.97,1.99-.72-.14-1.62-.29-2.7-.43-1.08-.14-2.23-.21-3.45-.21-2.88,0-5.5.31-7.88.92-2.37.61-4.39,1.39-6.04,2.32v39.38Z"/>
        <path class="letter" d="M349.9,139.17c1.01,4.1,2.97,7.14,5.88,9.12,2.91,1.98,6.64,2.97,11.17,2.97,3.02,0,5.79-.47,8.31-1.4,2.52-.93,4.53-1.94,6.04-3.02,2.01,1.15,3.02,2.77,3.02,4.85,0,1.23-.47,2.36-1.4,3.4-.93,1.04-2.21,1.94-3.83,2.7-1.62.75-3.53,1.35-5.72,1.78-2.19.43-4.55.65-7.06.65-4.17,0-7.97-.58-11.38-1.73-3.42-1.15-6.35-2.88-8.79-5.18-2.45-2.3-4.33-5.14-5.67-8.52-1.33-3.38-1.99-7.3-1.99-11.76s.65-8.11,1.94-11.38c1.29-3.27,3.05-6,5.28-8.2,2.23-2.19,4.86-3.87,7.88-5.02,3.02-1.15,6.26-1.73,9.71-1.73s6.6.56,9.44,1.67c2.84,1.11,5.28,2.66,7.34,4.64,2.05,1.98,3.63,4.34,4.75,7.07,1.11,2.74,1.67,5.72,1.67,8.96,0,1.8-.43,3.11-1.29,3.94-.87.83-2.13,1.38-3.78,1.67l-31.5,4.53ZM363.28,115.44c-3.96,0-7.25,1.33-9.87,3.99-2.62,2.66-4.01,6.47-4.15,11.44l26.54-3.78c-.28-3.24-1.47-5.99-3.56-8.25-2.08-2.27-5.07-3.4-8.95-3.4Z"/>
        <path class="letter" d="M436.11,107.13c1.58,0,2.88.38,3.88,1.13,1.01.75,1.51,1.96,1.51,3.61,0,.86-.27,2.32-.81,4.37-.54,2.05-1.28,4.44-2.21,7.17-.94,2.73-1.98,5.68-3.13,8.85-1.15,3.16-2.38,6.31-3.67,9.44-1.3,3.13-2.57,6.11-3.83,8.95-1.26,2.84-2.43,5.27-3.51,7.28-.57.36-1.44.7-2.59,1.03-1.15.32-2.45.48-3.89.48-3.52,0-5.83-.97-6.9-2.91-1.01-1.8-2.34-4.62-3.99-8.47-1.65-3.85-3.35-8.06-5.07-12.62-1.73-4.57-3.4-9.13-5.02-13.7-1.62-4.57-2.89-8.5-3.83-11.81.65-.79,1.51-1.46,2.59-2,1.08-.54,2.23-.81,3.45-.81,1.65,0,2.97.38,3.94,1.13.97.75,1.74,2.07,2.32,3.94l5.93,18.56c.43,1.37.93,2.88,1.51,4.53.57,1.66,1.15,3.33,1.73,5.02.57,1.69,1.15,3.31,1.72,4.86.57,1.55,1.04,2.86,1.4,3.94h.54c2.44-6.76,4.78-13.58,7.01-20.45,2.23-6.87,4.17-13.65,5.83-20.34,1.37-.79,3.06-1.19,5.07-1.19Z"/>
        <path class="letter" d="M451.75,92.67c0-1.87.65-3.43,1.94-4.69,1.3-1.26,2.95-1.89,4.96-1.89s3.63.63,4.86,1.89c1.22,1.26,1.84,2.82,1.84,4.69s-.62,3.44-1.84,4.69c-1.22,1.26-2.84,1.89-4.86,1.89s-3.67-.63-4.96-1.89c-1.29-1.26-1.94-2.82-1.94-4.69ZM464.26,158.49c-.5.22-1.2.41-2.1.59-.9.18-1.92.27-3.08.27-2.09,0-3.63-.4-4.64-1.19-1.01-.79-1.51-2.12-1.51-3.99v-45.64c.58-.14,1.31-.32,2.21-.54.9-.21,1.92-.32,3.08-.32,2.08,0,3.61.4,4.59,1.19.97.79,1.45,2.16,1.45,4.1v45.53Z"/>
        <path class="letter" d="M517.35,144.79c0,4.82-1.8,8.6-5.4,11.33-3.6,2.73-8.81,4.1-15.64,4.1-2.81,0-5.4-.21-7.77-.65-2.37-.43-4.4-1.04-6.1-1.83-1.69-.79-3.01-1.73-3.94-2.81-.94-1.08-1.4-2.26-1.4-3.56,0-1.08.27-2.09.81-3.02.54-.93,1.28-1.69,2.21-2.27,2.01,1.3,4.32,2.48,6.91,3.56,2.59,1.08,5.61,1.62,9.06,1.62,3.23,0,5.72-.56,7.44-1.67,1.73-1.11,2.59-2.71,2.59-4.8,0-1.8-.59-3.24-1.78-4.32-1.19-1.08-2.93-1.91-5.23-2.48l-7.34-1.94c-4.89-1.29-8.49-3.05-10.79-5.29-2.31-2.23-3.45-5.29-3.45-9.17,0-2.09.43-4.05,1.3-5.88.86-1.83,2.14-3.42,3.83-4.75,1.69-1.33,3.79-2.37,6.31-3.13,2.52-.75,5.39-1.13,8.63-1.13,2.59,0,4.94.2,7.06.59,2.12.4,3.96.94,5.5,1.62,1.55.69,2.75,1.53,3.62,2.54.86,1.01,1.29,2.09,1.29,3.24s-.25,2.14-.75,2.97-1.15,1.49-1.94,1.99c-1.3-.79-3.22-1.65-5.77-2.59-2.55-.93-5.3-1.4-8.25-1.4s-5.4.52-7.12,1.56c-1.72,1.04-2.59,2.5-2.59,4.37,0,1.44.48,2.63,1.46,3.56.97.93,2.64,1.69,5.01,2.26l6.26,1.62c5.47,1.44,9.5,3.38,12.08,5.83,2.59,2.45,3.89,5.76,3.89,9.93Z"/>
        <path class="letter" d="M549.17,106.7c6.69,0,12.01,1.46,15.97,4.37,3.95,2.91,5.93,7.5,5.93,13.76v25.14c0,1.66-.38,2.93-1.13,3.83-.75.9-1.78,1.75-3.08,2.54-1.87,1.08-4.28,2.02-7.23,2.81-2.95.79-6.37,1.19-10.25,1.19-6.98,0-12.42-1.37-16.34-4.1-3.92-2.73-5.88-6.76-5.88-12.08,0-4.75,1.53-8.38,4.59-10.9,3.06-2.52,7.46-4.06,13.22-4.64l15-1.51v-2.37c0-3.16-1.03-5.46-3.08-6.9-2.05-1.44-4.91-2.16-8.57-2.16-2.88,0-5.65.4-8.31,1.19-2.66.79-5.03,1.69-7.12,2.7-.72-.58-1.33-1.28-1.83-2.1-.51-.83-.75-1.74-.75-2.75,0-1.22.3-2.23.91-3.02.61-.79,1.57-1.47,2.86-2.05,2.01-1.01,4.32-1.74,6.91-2.21,2.59-.47,5.32-.7,8.2-.7ZM549.38,151.47c2.52,0,4.71-.25,6.58-.75,1.87-.5,3.2-1.04,3.99-1.62v-13.7l-11.76,1.19c-3.31.36-5.79,1.1-7.45,2.21-1.65,1.12-2.48,2.82-2.48,5.12s.9,4.23,2.7,5.56c1.79,1.33,4.6,2,8.41,2Z"/>
        <path class="letter" d="M592.44,159.35c-2.09,0-3.63-.4-4.64-1.19-1.01-.79-1.51-2.12-1.51-3.99v-65.49c.5-.14,1.23-.32,2.16-.54.94-.22,1.94-.32,3.02-.32,2.08,0,3.63.4,4.64,1.19,1.01.79,1.51,2.12,1.51,3.99v65.49c-.58.22-1.31.41-2.21.59-.9.18-1.89.27-2.97.27Z"/>
        <path class="letter" d="M613.15,108.32c.5-.14,1.22-.31,2.16-.48.93-.18,1.94-.27,3.02-.27,2.08,0,3.62.4,4.59,1.19s1.45,2.16,1.45,4.1v26.65c0,4.17,1.1,7.14,3.29,8.9,2.19,1.76,5.23,2.64,9.12,2.64,2.52,0,4.64-.25,6.37-.75,1.72-.5,3.09-1.04,4.1-1.62v-40.35c.57-.14,1.31-.31,2.21-.48s1.89-.27,2.97-.27c2.08,0,3.63.4,4.64,1.19s1.51,2.16,1.51,4.1v36.36c0,1.58-.26,2.88-.75,3.88-.51,1.01-1.51,1.98-3.02,2.91-1.87,1.08-4.33,2.05-7.39,2.91-3.06.86-6.63,1.29-10.73,1.29-7.41,0-13.18-1.64-17.32-4.91-4.14-3.27-6.2-8.47-6.2-15.59v-31.4Z"/>
        <path class="letter" d="M696.11,106.7c2.16,0,4.19.23,6.1.7,1.91.47,3.58,1.06,5.02,1.78v-20.5c.5-.14,1.22-.32,2.16-.54.93-.22,1.94-.32,3.02-.32,2.08,0,3.63.4,4.64,1.19,1,.79,1.51,2.12,1.51,3.99v56.53c0,1.51-.33,2.75-.97,3.72-.65.97-1.65,1.89-3.02,2.75-1.65,1.08-3.9,2.05-6.74,2.91-2.84.86-6.1,1.29-9.76,1.29-4.1,0-7.84-.52-11.22-1.56-3.38-1.04-6.26-2.66-8.63-4.86-2.37-2.19-4.21-4.96-5.5-8.31-1.3-3.35-1.94-7.28-1.94-11.81s.67-8.72,2-12.14c1.33-3.41,3.15-6.22,5.45-8.41,2.3-2.19,4.98-3.81,8.04-4.86,3.06-1.04,6.35-1.56,9.87-1.56ZM707.34,118.68c-1.23-.79-2.66-1.47-4.32-2.05-1.65-.58-3.49-.86-5.5-.86-2.16,0-4.15.32-5.99.97-1.83.65-3.43,1.71-4.8,3.18-1.37,1.47-2.45,3.34-3.24,5.61-.79,2.26-1.18,5.02-1.18,8.25,0,6.04,1.42,10.43,4.26,13.16,2.84,2.73,6.64,4.1,11.38,4.1,2.16,0,3.97-.23,5.45-.7,1.47-.47,2.79-1.03,3.94-1.67v-29.99Z"/>
      </g>
      <circle class="person-1" cx="198.23" cy="15.23" r="15.23"/>
      <circle class="person-2" cx="223.96" cy="75.83" r="15.23"/>
      <g>
        <path class="person-1" d="M192.12,50.99c.02-7.59-2.96-14.7-8.38-20.01-10.88-10.66-27.98-10.72-38.94-.14l-29.85,28.85c2.5,6.65,3.88,13.85,3.88,21.37,0,16.48-6.74,32.34-18.55,43.77l14,13.31,51.7-50.08c.08-.07.16-.14.24-.22l17.44-16.9c5.45-5.29,8.45-12.38,8.47-19.97Z"/>
        <polygon points="29.38 138.26 46.97 155.1 29.39 138.26 29.38 138.26"/>
        <path class="person-2" d="M146.52,181.45c0,3.37-.57,6.64-1.64,9.73l61.97-60.75c5.46-5.28,8.48-12.37,8.51-19.96s-2.94-14.7-8.35-20.02c-10.86-10.67-27.96-10.77-38.94-.21l-51.61,49.99,20.91,19.88c5.9,5.61,9.16,13.19,9.16,21.33Z"/>
        <polygon points="72.03 179.09 76.68 183.54 72.03 179.09 72.03 179.09"/>
        <path class="heart-p" d="M135.29,162.28l-39.39-37.46,1.18-1.09c11.92-10.94,18.75-26.49,18.75-42.66,0-31.94-25.98-57.92-57.92-57.92S0,49.14,0,81.07c0,13.56,4.78,26.75,13.47,37.13.57.69,3.01,3.49,3.37,3.9l81.93,78.44c10.4,9.95,26.57,9.84,36.83-.24,5.1-5.02,7.91-11.72,7.91-18.86s-2.92-14.12-8.22-19.16Z"/>
        <path class="heart-p" d="M135.61,200.31c-10.26,10.08-26.43,10.19-36.83.24L16.85,122.11c-.36-.41-2.8-3.21-3.37-3.9C4.78,107.82,0,94.63,0,81.07,0,49.14,25.98,23.16,57.92,23.16s57.92,25.98,57.92,57.92c0,16.17-6.83,31.72-18.75,42.66l-1.18,1.09,39.39,37.46c5.3,5.04,8.22,11.85,8.22,19.16s-2.81,13.85-7.91,18.86Z"/>
      </g>
    </g>
  </g>
</svg>