<?xml version="1.0" encoding="UTF-8"?>
<svg id="Capa_2" data-name="Capa 2" xmlns="http://www.w3.org/2000/svg" viewBox="0 0 239.30 207.94">
  <defs>
    <style>
      .heart-p {
        fill: #00a09b;
      }
      .person-1 {
        fill: #32d9c3
      }
      .person-2 {
        fill: #13bfd6
      }
    </style>
  </defs>
  <g id="Layer_1" data-name="Layer 1">
    <g>
      <circle class="person-1" cx="198.23" cy="15.23" r="15.23"/>
      <circle class="person-2" cx="223.96" cy="75.83" r="15.23"/>
      <g>
        <path class="person-1" d="M192.12,50.99c.02-7.59-2.96-14.7-8.38-20.01-10.88-10.66-27.98-10.72-38.94-.14l-29.85,28.85c2.5,6.65,3.88,13.85,3.88,21.37,0,16.48-6.74,32.34-18.55,43.77l14,13.31,51.7-50.08c.08-.07.16-.14.24-.22l17.44-16.9c5.45-5.29,8.45-12.38,8.47-19.97Z"/>
        <polygon points="29.38 138.26 46.97 155.1 29.39 138.26 29.38 138.26"/>
        <path class="person-2" d="M146.52,181.45c0,3.37-.57,6.64-1.64,9.73l61.97-60.75c5.46-5.28,8.48-12.37,8.51-19.96s-2.94-14.7-8.35-20.02c-10.86-10.67-27.96-10.77-38.94-.21l-51.61,49.99,20.91,19.88c5.9,5.61,9.16,13.19,9.16,21.33Z"/>
        <polygon points="72.03 179.09 76.68 183.54 72.03 179.09 72.03 179.09"/>
        <path class="heart-p" d="M135.29,162.28l-39.39-37.46,1.18-1.09c11.92-10.94,18.75-26.49,18.75-42.66,0-31.94-25.98-57.92-57.92-57.92S0,49.14,0,81.07c0,13.56,4.78,26.75,13.47,37.13.57.69,3.01,3.49,3.37,3.9l81.93,78.44c10.4,9.95,26.57,9.84,36.83-.24,5.1-5.02,7.91-11.72,7.91-18.86s-2.92-14.12-8.22-19.16Z"/>
        <path class="heart-p" d="M135.61,200.31c-10.26,10.08-26.43,10.19-36.83.24L16.85,122.11c-.36-.41-2.8-3.21-3.37-3.9C4.78,107.82,0,94.63,0,81.07,0,49.14,25.98,23.16,57.92,23.16s57.92,25.98,57.92,57.92c0,16.17-6.83,31.72-18.75,42.66l-1.18,1.09,39.39,37.46c5.3,5.04,8.22,11.85,8.22,19.16s-2.81,13.85-7.91,18.86Z"/>
      </g>
    </g>
  </g>
</svg>